<svg width="32" height="32" viewBox="0 0 32 32" fill="none" xmlns="http://www.w3.org/2000/svg">
<g clip-path="url(#clip0_2077_2033)">
<path d="M31.5 16C31.5 7.43959 24.5604 0.5 16 0.5C7.43959 0.5 0.5 7.43959 0.5 16C0.5 24.5604 7.43959 31.5 16 31.5C24.5604 31.5 31.5 24.5604 31.5 16Z" stroke="#27317C"/>
<path d="M14.0217 23.3327L14.0007 16.666H11.334V13.9993H14.0007V12.3327C14.0007 9.85841 15.5329 8.66602 17.7401 8.66602C18.7974 8.66602 19.706 8.74472 19.9708 8.77991V11.3657L18.44 11.3664C17.2396 11.3664 17.0072 11.9368 17.0072 12.7738V13.9993H20.5007L19.1673 16.666H17.0072V23.3327H14.0217Z" fill="#27317C"/>
</g>
<defs>
<clipPath id="clip0_2077_2033">
<rect width="32" height="32" fill="white"/>
</clipPath>
</defs>
</svg>