<svg width="32" height="32" viewBox="0 0 32 32" fill="none" xmlns="http://www.w3.org/2000/svg">
<g clip-path="url(#clip0_2077_2036)">
<path d="M31.5 16C31.5 7.43959 24.5604 0.5 16 0.5C7.43959 0.5 0.5 7.43959 0.5 16C0.5 24.5604 7.43959 31.5 16 31.5C24.5604 31.5 31.5 24.5604 31.5 16Z" stroke="#27317C"/>
<mask id="mask0_2077_2036" style="mask-type:luminance" maskUnits="userSpaceOnUse" x="8" y="8" width="16" height="16">
<path d="M24 8H8V24H24V8Z" fill="white"/>
</mask>
<g mask="url(#mask0_2077_2036)">
<path d="M16 9.441C18.136 9.441 18.389 9.45 19.233 9.488C19.7402 9.49409 20.2425 9.58746 20.718 9.764C21.0658 9.89248 21.3802 10.0975 21.638 10.364C21.9045 10.6218 22.1095 10.9362 22.238 11.284C22.4145 11.7595 22.5079 12.2618 22.514 12.769C22.552 13.613 22.561 13.869 22.561 16.002C22.561 18.135 22.552 18.391 22.514 19.235C22.5079 19.7422 22.4145 20.2445 22.238 20.72C22.1052 21.0651 21.9015 21.3785 21.64 21.64C21.3785 21.9015 21.0651 22.1052 20.72 22.238C20.2445 22.4145 19.7422 22.5079 19.235 22.514C18.391 22.552 18.135 22.561 16.002 22.561C13.869 22.561 13.613 22.552 12.769 22.514C12.2618 22.5079 11.7595 22.4145 11.284 22.238C10.9362 22.1095 10.6218 21.9045 10.364 21.638C10.0975 21.3802 9.89248 21.0658 9.764 20.718C9.58746 20.2425 9.49409 19.7402 9.488 19.233C9.45 18.389 9.441 18.133 9.441 16C9.441 13.867 9.45 13.611 9.488 12.767C9.49409 12.2598 9.58746 11.7575 9.764 11.282C9.89248 10.9342 10.0975 10.6198 10.364 10.362C10.6218 10.0955 10.9362 9.89048 11.284 9.762C11.7595 9.58546 12.2618 9.49209 12.769 9.486C13.613 9.448 13.869 9.439 16.002 9.439M16 8C13.827 8 13.555 8.009 12.7 8.048C12.037 8.06148 11.381 8.18727 10.76 8.42C10.226 8.62056 9.74231 8.9356 9.343 9.343C8.9356 9.74231 8.62056 10.226 8.42 10.76C8.18727 11.381 8.06148 12.037 8.048 12.7C8.009 13.555 8 13.827 8 16C8 18.173 8.009 18.445 8.048 19.3C8.06148 19.963 8.18727 20.619 8.42 21.24C8.62056 21.774 8.9356 22.2577 9.343 22.657C9.74231 23.0644 10.226 23.3794 10.76 23.58C11.3816 23.813 12.0383 23.9387 12.702 23.952C13.555 23.991 13.827 24 16 24C18.173 24 18.445 23.991 19.3 23.952C19.9637 23.9387 20.6204 23.813 21.242 23.58C21.7734 23.3743 22.256 23.0599 22.659 22.657C23.0619 22.254 23.3763 21.7714 23.582 21.24C23.815 20.6184 23.9407 19.9617 23.954 19.298C23.993 18.445 24.002 18.173 24.002 15.998C24.002 13.823 23.993 13.553 23.954 12.698C23.9397 12.0355 23.8132 11.3802 23.58 10.76C23.3794 10.226 23.0644 9.74231 22.657 9.343C22.2577 8.9356 21.774 8.62056 21.24 8.42C20.619 8.18727 19.963 8.06148 19.3 8.048C18.445 8.009 18.173 8 16 8Z" fill="#27317C"/>
<path d="M16.0006 11.8926C15.1881 11.8926 14.3939 12.1335 13.7183 12.5849C13.0427 13.0363 12.5162 13.6779 12.2053 14.4285C11.8944 15.1792 11.813 16.0051 11.9715 16.802C12.13 17.5989 12.5213 18.3309 13.0958 18.9054C13.6703 19.4799 14.4023 19.8711 15.1991 20.0296C15.996 20.1882 16.822 20.1068 17.5726 19.7959C18.3233 19.4849 18.9649 18.9584 19.4163 18.2829C19.8676 17.6073 20.1086 16.8131 20.1086 16.0006C20.1086 15.4611 20.0023 14.9269 19.7959 14.4285C19.5894 13.9301 19.2868 13.4772 18.9054 13.0958C18.5239 12.7143 18.071 12.4117 17.5726 12.2053C17.0742 11.9988 16.5401 11.8926 16.0006 11.8926ZM16.0006 18.6676C15.4731 18.6676 14.9575 18.5112 14.5189 18.2181C14.0803 17.9251 13.7385 17.5085 13.5366 17.0212C13.3347 16.5339 13.2819 15.9976 13.3848 15.4803C13.4877 14.9629 13.7417 14.4877 14.1147 14.1147C14.4877 13.7417 14.9629 13.4877 15.4803 13.3848C15.9976 13.2819 16.5339 13.3347 17.0212 13.5366C17.5085 13.7385 17.9251 14.0803 18.2181 14.5189C18.5112 14.9575 18.6676 15.4731 18.6676 16.0006C18.6676 16.7079 18.3866 17.3863 17.8864 17.8864C17.3863 18.3866 16.7079 18.6676 16.0006 18.6676Z" fill="#27317C"/>
<path d="M20.2705 12.6895C20.8007 12.6895 21.2305 12.2597 21.2305 11.7295C21.2305 11.1993 20.8007 10.7695 20.2705 10.7695C19.7404 10.7695 19.3105 11.1993 19.3105 11.7295C19.3105 12.2597 19.7404 12.6895 20.2705 12.6895Z" fill="#27317C"/>
</g>
</g>
<defs>
<clipPath id="clip0_2077_2036">
<rect width="32" height="32" fill="white"/>
</clipPath>
</defs>
</svg>