<svg width="32" height="32" viewBox="0 0 32 32" fill="none" xmlns="http://www.w3.org/2000/svg">
<g clip-path="url(#clip0_2077_2053)">
<path d="M31.5 16C31.5 7.43959 24.5604 0.5 16 0.5C7.43959 0.5 0.5 7.43959 0.5 16C0.5 24.5604 7.43959 31.5 16 31.5C24.5604 31.5 31.5 24.5604 31.5 16Z" stroke="#27317C"/>
<path d="M14.7927 13.958V16.706C14.4466 16.6147 14.0844 16.6023 13.7329 16.6696C13.3814 16.7369 13.0494 16.8822 12.7615 17.0949C12.4736 17.3076 12.2371 17.5821 12.0694 17.8983C11.9018 18.2146 11.8072 18.5644 11.7927 18.922C11.7723 19.2303 11.8183 19.5395 11.9274 19.8285C12.0366 20.1176 12.2064 20.38 12.4255 20.5979C12.6446 20.8158 12.9078 20.9843 13.1975 21.092C13.4871 21.1996 13.7965 21.244 14.1047 21.222C14.4155 21.2456 14.7277 21.2015 15.0199 21.0928C15.312 20.984 15.577 20.8132 15.7967 20.5921C16.0164 20.371 16.1855 20.1048 16.2924 19.812C16.3993 19.5192 16.4413 19.2067 16.4157 18.896V8H19.1347C19.5977 10.876 21.0347 11.544 22.9617 11.852V14.608C21.627 14.4989 20.3394 14.0642 19.2117 13.342V18.787C19.2097 21.25 17.7497 24 14.1247 24C13.4447 23.9969 12.7723 23.8581 12.1466 23.5918C11.521 23.3255 10.9548 22.937 10.4813 22.4491C10.0077 21.9612 9.63628 21.3836 9.38874 20.7503C9.14121 20.1171 9.02255 19.4407 9.03972 18.761C9.0611 18.0531 9.23229 17.3579 9.54203 16.721C9.85177 16.0842 10.293 15.5202 10.8366 15.0664C11.3802 14.6125 12.0139 14.2791 12.6958 14.088C13.3777 13.897 14.0924 13.8527 14.7927 13.958Z" fill="#27317C"/>
</g>
<defs>
<clipPath id="clip0_2077_2053">
<rect width="32" height="32" fill="white"/>
</clipPath>
</defs>
</svg>