<svg width="32" height="32" viewBox="0 0 32 32" fill="none" xmlns="http://www.w3.org/2000/svg">
<g clip-path="url(#clip0_2077_2045)">
<path d="M31.5 16C31.5 7.43959 24.5604 0.5 16 0.5C7.43959 0.5 0.5 7.43959 0.5 16C0.5 24.5604 7.43959 31.5 16 31.5C24.5604 31.5 31.5 24.5604 31.5 16Z" stroke="#27317C"/>
<path d="M15.2276 18.1013L10.9371 23.0003H8.56055L14.1176 16.6523L15.2276 18.1013Z" fill="#27317C"/>
<path d="M16.5254 13.494L20.4539 9H22.8289L17.6254 14.951L16.5254 13.494Z" fill="#27317C"/>
<path d="M23.7439 23H18.9644L8.25586 9H13.1564L23.7439 23ZM19.6199 21.5785H20.9359L12.4414 10.347H11.0294L19.6199 21.5785Z" fill="#27317C"/>
</g>
<defs>
<clipPath id="clip0_2077_2045">
<rect width="32" height="32" fill="white"/>
</clipPath>
</defs>
</svg>
