<svg width="32" height="32" viewBox="0 0 32 32" fill="none" xmlns="http://www.w3.org/2000/svg">
<g clip-path="url(#clip0_2077_2050)">
<path d="M31.5 16C31.5 7.43959 24.5604 0.5 16 0.5C7.43959 0.5 0.5 7.43959 0.5 16C0.5 24.5604 7.43959 31.5 16 31.5C24.5604 31.5 31.5 24.5604 31.5 16Z" stroke="#27317C"/>
<path d="M23.8 12.8C23.6 11.5 23 10.6 21.6 10.4C19.4 10 16 10 16 10C16 10 12.6 10 10.4 10.4C9 10.6 8.3 11.5 8.2 12.8C8 14.1 8 16 8 16C8 16 8 17.9 8.2 19.2C8.4 20.5 9 21.4 10.4 21.6C12.6 22 16 22 16 22C16 22 19.4 22 21.6 21.6C23 21.3 23.6 20.5 23.8 19.2C24 17.9 24 16 24 16C24 16 24 14.1 23.8 12.8ZM14 19V13L19 16L14 19Z" fill="#27317C"/>
</g>
<defs>
<clipPath id="clip0_2077_2050">
<rect width="32" height="32" fill="white"/>
</clipPath>
</defs>
</svg>